<mxfile host="Electron" modified="2024-04-14T14:11:35.620Z" agent="Mozilla/5.0 (Windows NT 10.0; Win64; x64) AppleWebKit/537.36 (KHTML, like Gecko) draw.io/24.1.0 Chrome/120.0.6099.109 Electron/28.1.0 Safari/537.36" etag="Hx4VRiEzESKNI8CuqAD4" version="24.1.0" type="device">
  <diagram name="第 1 页" id="jLZueySay2WEydJcyAtQ">
    <mxGraphModel dx="521" dy="613" grid="1" gridSize="10" guides="1" tooltips="1" connect="1" arrows="1" fold="1" page="1" pageScale="1" pageWidth="827" pageHeight="1169" math="0" shadow="0">
      <root>
        <mxCell id="0" />
        <mxCell id="1" parent="0" />
        <mxCell id="AxX6NxumQRTKpUtOIesb-9" style="edgeStyle=orthogonalEdgeStyle;rounded=0;orthogonalLoop=1;jettySize=auto;html=1;exitX=1;exitY=0.5;exitDx=0;exitDy=0;entryX=0;entryY=0.5;entryDx=0;entryDy=0;" edge="1" parent="1" source="AxX6NxumQRTKpUtOIesb-1" target="AxX6NxumQRTKpUtOIesb-4">
          <mxGeometry relative="1" as="geometry" />
        </mxCell>
        <mxCell id="AxX6NxumQRTKpUtOIesb-1" value="1.1账号信息" style="rounded=1;whiteSpace=wrap;html=1;" vertex="1" parent="1">
          <mxGeometry x="100" y="320" width="90" height="40" as="geometry" />
        </mxCell>
        <mxCell id="AxX6NxumQRTKpUtOIesb-10" style="edgeStyle=orthogonalEdgeStyle;rounded=0;orthogonalLoop=1;jettySize=auto;html=1;exitX=1;exitY=0.5;exitDx=0;exitDy=0;" edge="1" parent="1" source="AxX6NxumQRTKpUtOIesb-4" target="AxX6NxumQRTKpUtOIesb-5">
          <mxGeometry relative="1" as="geometry" />
        </mxCell>
        <mxCell id="AxX6NxumQRTKpUtOIesb-4" value="1.2账号信息" style="rounded=1;whiteSpace=wrap;html=1;" vertex="1" parent="1">
          <mxGeometry x="270" y="320" width="90" height="40" as="geometry" />
        </mxCell>
        <mxCell id="AxX6NxumQRTKpUtOIesb-12" style="edgeStyle=orthogonalEdgeStyle;rounded=0;orthogonalLoop=1;jettySize=auto;html=1;exitX=0.5;exitY=1;exitDx=0;exitDy=0;" edge="1" parent="1" source="AxX6NxumQRTKpUtOIesb-5" target="AxX6NxumQRTKpUtOIesb-6">
          <mxGeometry relative="1" as="geometry" />
        </mxCell>
        <mxCell id="AxX6NxumQRTKpUtOIesb-5" value="1.3判断用户类型" style="rounded=1;whiteSpace=wrap;html=1;" vertex="1" parent="1">
          <mxGeometry x="450" y="320" width="90" height="40" as="geometry" />
        </mxCell>
        <mxCell id="AxX6NxumQRTKpUtOIesb-11" style="edgeStyle=orthogonalEdgeStyle;rounded=0;orthogonalLoop=1;jettySize=auto;html=1;exitX=1;exitY=0.5;exitDx=0;exitDy=0;" edge="1" parent="1" source="AxX6NxumQRTKpUtOIesb-6" target="AxX6NxumQRTKpUtOIesb-7">
          <mxGeometry relative="1" as="geometry" />
        </mxCell>
        <mxCell id="AxX6NxumQRTKpUtOIesb-6" value="1.4账号信息" style="rounded=1;whiteSpace=wrap;html=1;" vertex="1" parent="1">
          <mxGeometry x="270" y="430" width="90" height="40" as="geometry" />
        </mxCell>
        <mxCell id="AxX6NxumQRTKpUtOIesb-7" value="用户信息表" style="shape=partialRectangle;whiteSpace=wrap;html=1;left=0;right=0;fillColor=none;" vertex="1" parent="1">
          <mxGeometry x="470" y="430" width="110" height="40" as="geometry" />
        </mxCell>
        <mxCell id="AxX6NxumQRTKpUtOIesb-8" value="" style="endArrow=classic;html=1;rounded=0;entryX=0;entryY=0.5;entryDx=0;entryDy=0;" edge="1" parent="1" target="AxX6NxumQRTKpUtOIesb-1">
          <mxGeometry width="50" height="50" relative="1" as="geometry">
            <mxPoint x="20" y="340" as="sourcePoint" />
            <mxPoint x="80" y="340" as="targetPoint" />
          </mxGeometry>
        </mxCell>
        <mxCell id="AxX6NxumQRTKpUtOIesb-13" value="个人信息" style="text;html=1;align=center;verticalAlign=middle;resizable=0;points=[];autosize=1;strokeColor=none;fillColor=none;" vertex="1" parent="1">
          <mxGeometry x="25" y="308" width="70" height="30" as="geometry" />
        </mxCell>
        <mxCell id="AxX6NxumQRTKpUtOIesb-14" value="个人信息" style="text;html=1;align=center;verticalAlign=middle;resizable=0;points=[];autosize=1;strokeColor=none;fillColor=none;" vertex="1" parent="1">
          <mxGeometry x="200" y="308" width="70" height="30" as="geometry" />
        </mxCell>
        <mxCell id="AxX6NxumQRTKpUtOIesb-15" value="个人信息" style="text;html=1;align=center;verticalAlign=middle;resizable=0;points=[];autosize=1;strokeColor=none;fillColor=none;" vertex="1" parent="1">
          <mxGeometry x="370" y="308" width="70" height="30" as="geometry" />
        </mxCell>
        <mxCell id="AxX6NxumQRTKpUtOIesb-16" value="合法个人信息" style="text;html=1;align=center;verticalAlign=middle;resizable=0;points=[];autosize=1;strokeColor=none;fillColor=none;" vertex="1" parent="1">
          <mxGeometry x="355" y="360" width="100" height="30" as="geometry" />
        </mxCell>
        <mxCell id="AxX6NxumQRTKpUtOIesb-17" value="用户信息" style="text;html=1;align=center;verticalAlign=middle;resizable=0;points=[];autosize=1;strokeColor=none;fillColor=none;" vertex="1" parent="1">
          <mxGeometry x="375" y="420" width="70" height="30" as="geometry" />
        </mxCell>
      </root>
    </mxGraphModel>
  </diagram>
</mxfile>
